<svg width="3499" height="838" viewBox="0 0 3499 838" fill="none" xmlns="http://www.w3.org/2000/svg">
<g filter="url(#filter0_d_1301_22)">
<path d="M1201.72 230.836C1203.8 231.227 1206.28 231.552 1209.14 231.812C1212.01 231.943 1215.07 232.138 1218.32 232.398C1221.71 232.529 1225.09 232.659 1228.48 232.789C1231.86 232.789 1235.05 232.789 1238.05 232.789C1248.2 232.789 1257.38 231.552 1265.59 229.078C1273.92 226.474 1281.02 222.763 1286.88 217.945C1292.73 212.997 1297.29 206.943 1300.55 199.781C1303.8 192.49 1305.43 184.156 1305.43 174.781C1305.43 169.182 1304.39 163.909 1302.3 158.961C1300.35 153.883 1297.29 149.456 1293.12 145.68C1289.09 141.773 1283.95 138.714 1277.7 136.5C1271.45 134.286 1264.15 133.18 1255.82 133.18C1252.43 133.18 1249.51 133.245 1247.03 133.375C1244.56 133.375 1242.21 133.44 1240 133.57C1237.79 133.57 1235.57 133.635 1233.36 133.766C1231.15 133.896 1228.67 134.026 1225.94 134.156L1201.72 230.836ZM1187.07 289.82C1184.73 299.456 1182.51 308.57 1180.43 317.164C1178.35 325.628 1176.46 333.44 1174.77 340.602C1173.2 347.763 1171.9 354.208 1170.86 359.938C1169.95 365.536 1169.36 370.224 1169.1 374H1107.58C1110.96 366.188 1114.61 354.99 1118.52 340.406C1122.42 325.693 1126.72 308.831 1131.41 289.82L1158.55 180.641C1160.9 171.135 1163.18 161.891 1165.39 152.906C1167.6 143.922 1169.56 135.589 1171.25 127.906C1173.07 120.094 1174.57 113.128 1175.74 107.008C1176.91 100.758 1177.63 95.6797 1177.89 91.7734C1188.44 91.513 1199.18 91.1875 1210.12 90.7969C1214.8 90.6667 1219.75 90.6016 1224.96 90.6016C1230.17 90.4714 1235.51 90.3411 1240.98 90.2109C1246.45 90.0807 1251.91 90.0156 1257.38 90.0156C1262.98 89.8854 1268.39 89.8203 1273.59 89.8203C1287.01 89.8203 1299.11 91.5781 1309.92 95.0938C1320.86 98.6094 1330.17 103.622 1337.85 110.133C1345.66 116.513 1351.65 124.26 1355.82 133.375C1359.99 142.49 1362.07 152.646 1362.07 163.844C1362.07 181.292 1358.88 196.917 1352.5 210.719C1346.12 224.391 1337.2 235.979 1325.74 245.484C1314.41 254.99 1300.87 262.281 1285.12 267.359C1269.36 272.307 1252.11 274.781 1233.36 274.781C1226.2 274.781 1218.97 274.651 1211.68 274.391C1204.39 274 1197.62 273.479 1191.37 272.828L1187.07 289.82ZM1474.57 213.453C1468.45 213.453 1462.53 214.43 1456.8 216.383C1451.07 218.336 1445.73 221.266 1440.78 225.172C1435.83 229.078 1431.41 233.896 1427.5 239.625C1423.59 245.354 1420.47 251.995 1418.12 259.547C1425.68 260.328 1432.77 260.719 1439.41 260.719C1451.26 260.719 1461.35 260.068 1469.69 258.766C1478.02 257.464 1484.79 255.641 1490 253.297C1495.34 250.953 1499.18 248.089 1501.52 244.703C1503.87 241.318 1505.04 237.542 1505.04 233.375C1505.04 227.255 1502.37 222.438 1497.03 218.922C1491.69 215.276 1484.21 213.453 1474.57 213.453ZM1530.04 359.547C1522.1 363.062 1514.54 366.057 1507.38 368.531C1500.35 371.005 1493.39 372.958 1486.48 374.391C1479.58 375.953 1472.62 377.06 1465.59 377.711C1458.68 378.492 1451.46 378.883 1443.91 378.883C1432.97 378.883 1422.62 376.995 1412.85 373.219C1403.22 369.443 1394.75 364.104 1387.46 357.203C1380.3 350.172 1374.64 341.708 1370.47 331.812C1366.3 321.786 1364.22 310.589 1364.22 298.219C1364.22 279.339 1367.47 262.216 1373.98 246.852C1380.49 231.357 1389.28 218.141 1400.35 207.203C1411.42 196.266 1424.31 187.802 1439.02 181.812C1453.74 175.823 1469.23 172.828 1485.51 172.828C1496.45 172.828 1506.21 174.065 1514.8 176.539C1523.4 179.013 1530.69 182.529 1536.68 187.086C1542.67 191.513 1547.23 196.786 1550.35 202.906C1553.48 209.026 1555.04 215.667 1555.04 222.828C1555.04 232.203 1552.7 241.122 1548.01 249.586C1543.45 258.049 1536.61 265.536 1527.5 272.047C1518.39 278.557 1507.06 283.766 1493.52 287.672C1479.97 291.448 1464.28 293.336 1446.45 293.336C1441.89 293.336 1436.68 293.206 1430.82 292.945C1425.09 292.685 1419.36 292.294 1413.63 291.773C1413.76 298.023 1414.54 303.818 1415.98 309.156C1417.54 314.495 1419.95 319.117 1423.2 323.023C1426.46 326.799 1430.62 329.794 1435.7 332.008C1440.78 334.221 1446.9 335.328 1454.06 335.328C1466.95 335.328 1479.84 333.701 1492.73 330.445C1505.76 327.19 1519.23 321.982 1533.16 314.82L1530.04 359.547ZM1569.3 374L1598.79 255.055C1599.7 251.148 1600.55 246.005 1601.33 239.625C1602.24 233.115 1602.96 226.474 1603.48 219.703C1604.13 212.932 1604.58 206.487 1604.84 200.367C1605.23 194.247 1605.43 189.495 1605.43 186.109V176.734H1659.14C1659.14 179.208 1658.95 182.919 1658.55 187.867C1658.29 192.815 1657.9 198.154 1657.38 203.883C1656.86 209.612 1656.28 215.211 1655.62 220.68C1655.1 226.148 1654.58 230.641 1654.06 234.156C1660.18 225.953 1666.63 218.206 1673.4 210.914C1680.3 203.492 1687.27 196.982 1694.3 191.383C1701.33 185.654 1708.36 181.161 1715.39 177.906C1722.42 174.521 1729.26 172.828 1735.9 172.828C1741.76 172.828 1746.84 174 1751.13 176.344C1755.43 178.557 1758.95 181.747 1761.68 185.914C1764.41 189.951 1766.43 194.833 1767.73 200.562C1769.04 206.161 1769.69 212.281 1769.69 218.922C1769.69 223.089 1769.17 227.385 1768.12 231.812C1767.21 236.24 1766.3 240.797 1765.39 245.484L1720.08 252.125C1720.34 250.172 1720.53 248.349 1720.66 246.656C1720.92 244.833 1721.05 243.141 1721.05 241.578C1721.05 235.719 1719.88 231.161 1717.54 227.906C1715.2 224.651 1711.35 223.023 1706.02 223.023C1703.28 223.023 1700.16 224.13 1696.64 226.344C1693.12 228.427 1689.41 231.292 1685.51 234.938C1681.6 238.583 1677.63 242.75 1673.59 247.438C1669.56 252.125 1665.65 257.073 1661.88 262.281C1658.23 267.359 1654.84 272.503 1651.72 277.711C1648.72 282.789 1646.25 287.542 1644.3 291.969L1623.98 374H1569.3ZM1957.58 118.336C1954.32 114.56 1950.03 111.565 1944.69 109.352C1939.35 107.008 1934.27 105.836 1929.45 105.836C1920.08 105.836 1912.27 109.286 1906.02 116.188C1899.77 122.958 1894.75 134.221 1890.98 149.977L1883.75 179.664H1935.9L1926.13 218.336H1874.77C1872.68 226.93 1870.53 236.044 1868.32 245.68C1866.11 255.315 1863.63 266.253 1860.9 278.492C1859.34 285.003 1857.97 291.578 1856.8 298.219C1855.62 304.859 1854.65 311.37 1853.87 317.75C1853.09 324.13 1852.5 330.25 1852.11 336.109C1851.72 341.969 1851.52 347.438 1851.52 352.516C1851.52 361.37 1852.11 368.531 1853.28 374H1792.73C1793.39 363.844 1794.62 352.451 1796.45 339.82C1798.27 327.19 1800.42 314.039 1802.89 300.367C1805.49 286.565 1808.23 272.633 1811.09 258.57C1814.09 244.508 1817.08 231.096 1820.08 218.336H1782.58L1792.34 179.664H1829.26L1837.27 147.828C1844.69 118.661 1856.93 96.8516 1873.98 82.3984C1891.17 67.9453 1911.88 60.7188 1936.09 60.7188C1939.74 60.7188 1943.58 61.1094 1947.62 61.8906C1951.65 62.5417 1955.62 63.5182 1959.53 64.8203C1963.57 65.9922 1967.28 67.4245 1970.66 69.1172C1974.18 70.8099 1977.17 72.5677 1979.65 74.3906L1957.58 118.336ZM2054.65 213.453C2048.53 213.453 2042.6 214.43 2036.88 216.383C2031.15 218.336 2025.81 221.266 2020.86 225.172C2015.91 229.078 2011.48 233.896 2007.58 239.625C2003.67 245.354 2000.55 251.995 1998.2 259.547C2005.76 260.328 2012.85 260.719 2019.49 260.719C2031.34 260.719 2041.43 260.068 2049.77 258.766C2058.1 257.464 2064.87 255.641 2070.08 253.297C2075.42 250.953 2079.26 248.089 2081.6 244.703C2083.95 241.318 2085.12 237.542 2085.12 233.375C2085.12 227.255 2082.45 222.438 2077.11 218.922C2071.77 215.276 2064.28 213.453 2054.65 213.453ZM2110.12 359.547C2102.17 363.062 2094.62 366.057 2087.46 368.531C2080.43 371.005 2073.46 372.958 2066.56 374.391C2059.66 375.953 2052.7 377.06 2045.66 377.711C2038.76 378.492 2031.54 378.883 2023.98 378.883C2013.05 378.883 2002.7 376.995 1992.93 373.219C1983.29 369.443 1974.83 364.104 1967.54 357.203C1960.38 350.172 1954.71 341.708 1950.55 331.812C1946.38 321.786 1944.3 310.589 1944.3 298.219C1944.3 279.339 1947.55 262.216 1954.06 246.852C1960.57 231.357 1969.36 218.141 1980.43 207.203C1991.5 196.266 2004.39 187.802 2019.1 181.812C2033.82 175.823 2049.31 172.828 2065.59 172.828C2076.52 172.828 2086.29 174.065 2094.88 176.539C2103.48 179.013 2110.77 182.529 2116.76 187.086C2122.75 191.513 2127.3 196.786 2130.43 202.906C2133.55 209.026 2135.12 215.667 2135.12 222.828C2135.12 232.203 2132.77 241.122 2128.09 249.586C2123.53 258.049 2116.69 265.536 2107.58 272.047C2098.46 278.557 2087.14 283.766 2073.59 287.672C2060.05 291.448 2044.36 293.336 2026.52 293.336C2021.97 293.336 2016.76 293.206 2010.9 292.945C2005.17 292.685 1999.44 292.294 1993.71 291.773C1993.84 298.023 1994.62 303.818 1996.05 309.156C1997.62 314.495 2000.03 319.117 2003.28 323.023C2006.54 326.799 2010.7 329.794 2015.78 332.008C2020.86 334.221 2026.98 335.328 2034.14 335.328C2047.03 335.328 2059.92 333.701 2072.81 330.445C2085.83 327.19 2099.31 321.982 2113.24 314.82L2110.12 359.547ZM2321.84 233.375C2318.19 230.38 2314.61 227.906 2311.09 225.953C2307.71 223.87 2304.19 222.177 2300.55 220.875C2296.9 219.573 2292.99 218.661 2288.83 218.141C2284.79 217.62 2280.23 217.359 2275.16 217.359C2267.08 217.359 2259.08 219.052 2251.13 222.438C2243.32 225.823 2236.29 230.771 2230.04 237.281C2223.92 243.661 2218.91 251.539 2215 260.914C2211.22 270.159 2209.34 280.771 2209.34 292.75C2209.34 298.349 2210.25 303.688 2212.07 308.766C2213.89 313.714 2216.56 318.141 2220.08 322.047C2223.59 325.823 2227.83 328.818 2232.77 331.031C2237.85 333.245 2243.58 334.352 2249.96 334.352C2256.34 334.352 2262.2 333.961 2267.54 333.18C2272.88 332.268 2277.96 330.966 2282.77 329.273C2287.72 327.451 2292.47 325.237 2297.03 322.633C2301.59 319.898 2306.21 316.773 2310.9 313.258L2308.95 360.523C2299.96 366.253 2289.67 370.745 2278.09 374C2266.63 377.255 2253.61 378.883 2239.02 378.883C2227.83 378.883 2217.28 376.995 2207.38 373.219C2197.49 369.443 2188.83 364.039 2181.41 357.008C2173.98 349.977 2168.06 341.513 2163.63 331.617C2159.34 321.721 2157.19 310.719 2157.19 298.609C2157.19 279.729 2160.51 262.542 2167.15 247.047C2173.92 231.552 2183.03 218.336 2194.49 207.398C2206.08 196.331 2219.49 187.802 2234.73 181.812C2250.09 175.823 2266.3 172.828 2283.36 172.828C2296.38 172.828 2307.9 174.195 2317.93 176.93C2328.09 179.664 2336.29 182.919 2342.54 186.695L2321.84 233.375ZM2451.13 218.336C2449.05 226.539 2447.03 234.417 2445.08 241.969C2443.26 249.521 2441.56 256.552 2440 263.062C2438.44 269.573 2437.07 275.432 2435.9 280.641C2434.86 285.719 2434.08 289.82 2433.55 292.945C2432.38 299.846 2431.8 306.161 2431.8 311.891C2431.8 318.531 2432.97 323.935 2435.31 328.102C2437.66 332.138 2441.89 334.156 2448.01 334.156C2452.96 334.156 2458.82 332.919 2465.59 330.445C2472.49 327.971 2480.43 324.391 2489.41 319.703L2485.7 363.258C2480.36 366.122 2475.03 368.596 2469.69 370.68C2464.35 372.633 2459.21 374.195 2454.26 375.367C2449.31 376.669 2444.62 377.581 2440.2 378.102C2435.77 378.622 2431.8 378.883 2428.28 378.883C2420.08 378.883 2412.59 377.711 2405.82 375.367C2399.18 373.023 2393.45 369.573 2388.63 365.016C2383.82 360.328 2380.04 354.664 2377.3 348.023C2374.7 341.253 2373.4 333.44 2373.4 324.586C2373.4 319.898 2373.79 315.016 2374.57 309.938C2375.09 306.292 2376 301.344 2377.3 295.094C2378.74 288.844 2380.43 281.682 2382.38 273.609C2384.34 265.536 2386.48 256.812 2388.83 247.438C2391.17 237.932 2393.65 228.232 2396.25 218.336H2360.31L2370.08 179.664H2406.41C2409.4 168.076 2412.27 157.073 2415 146.656C2417.73 136.24 2420.14 126.93 2422.23 118.727H2476.91L2461.29 179.664H2521.45L2511.68 218.336H2451.13ZM2711.88 176.734C2713.18 184.026 2714.28 192.164 2715.2 201.148C2716.11 210.133 2716.82 219.638 2717.34 229.664C2717.99 239.69 2718.45 250.107 2718.71 260.914C2719.1 271.721 2719.3 282.659 2719.3 293.727V310.328C2719.3 315.797 2719.17 321.266 2718.91 326.734C2723.46 320.484 2728.15 313.388 2732.97 305.445C2737.92 297.503 2742.73 289.169 2747.42 280.445C2752.24 271.721 2756.73 262.802 2760.9 253.688C2765.2 244.443 2768.91 235.458 2772.03 226.734C2775.29 217.88 2777.83 209.417 2779.65 201.344C2781.6 193.271 2782.58 186.044 2782.58 179.664V176.734H2836.88C2836.88 184.417 2835.44 193.141 2832.58 202.906C2829.71 212.672 2825.81 223.089 2820.86 234.156C2815.91 245.094 2810.05 256.552 2803.28 268.531C2796.64 280.51 2789.48 292.555 2781.8 304.664C2774.11 316.643 2766.11 328.557 2757.77 340.406C2749.57 352.125 2741.37 363.323 2733.16 374H2682.38C2682.38 363.714 2682.32 352.841 2682.19 341.383C2682.19 329.924 2682.06 318.401 2681.8 306.812C2681.67 295.094 2681.34 283.505 2680.82 272.047C2680.43 260.589 2679.78 249.651 2678.87 239.234C2676.78 243.531 2673.98 249 2670.47 255.641C2666.95 262.281 2662.92 269.638 2658.36 277.711C2653.93 285.654 2649.18 294.052 2644.1 302.906C2639.02 311.76 2633.88 320.484 2628.67 329.078C2623.59 337.542 2618.58 345.68 2613.63 353.492C2608.82 361.305 2604.39 368.141 2600.35 374H2543.71C2544.62 363.714 2545.4 354.078 2546.05 345.094C2546.71 336.109 2547.23 327.711 2547.62 319.898C2548.14 311.956 2548.46 304.534 2548.59 297.633C2548.85 290.602 2548.98 283.896 2548.98 277.516C2548.98 268.531 2548.85 259.872 2548.59 251.539C2548.46 243.206 2548.07 234.938 2547.42 226.734C2546.77 218.531 2545.86 210.328 2544.69 202.125C2543.52 193.922 2541.95 185.458 2540 176.734H2590.39C2592.34 186.76 2593.71 197.438 2594.49 208.766C2595.4 220.094 2595.86 231.617 2595.86 243.336C2595.86 251.148 2595.66 258.896 2595.27 266.578C2594.88 274.26 2594.36 281.682 2593.71 288.844C2593.06 295.875 2592.28 302.646 2591.37 309.156C2590.46 315.536 2589.48 321.396 2588.44 326.734C2595.99 314.365 2603.54 301.604 2611.09 288.453C2618.78 275.172 2626.13 262.021 2633.16 249C2640.2 235.979 2646.77 223.349 2652.89 211.109C2659.01 198.74 2664.35 187.281 2668.91 176.734H2711.88ZM3006.02 220.094C3003.41 219.443 2999.31 218.661 2993.71 217.75C2988.11 216.708 2981.15 216.188 2972.81 216.188C2963.05 216.188 2954.19 218.466 2946.25 223.023C2938.31 227.581 2931.34 233.44 2925.35 240.602C2919.36 247.763 2914.41 255.836 2910.51 264.82C2906.73 273.674 2904 282.464 2902.3 291.188C2901.13 297.047 2900.55 302.581 2900.55 307.789C2900.55 315.211 2901.72 321.266 2904.06 325.953C2906.54 330.641 2910.31 332.984 2915.39 332.984C2920.21 332.984 2925.55 331.292 2931.41 327.906C2937.27 324.521 2943.19 320.094 2949.18 314.625C2955.3 309.026 2961.22 302.711 2966.95 295.68C2972.81 288.648 2978.15 281.487 2982.97 274.195C2987.92 266.773 2992.15 259.547 2995.66 252.516C2999.18 245.484 3001.59 239.234 3002.89 233.766L3006.02 220.094ZM2984.34 374C2984.34 371.135 2984.4 367.685 2984.53 363.648C2984.66 359.482 2984.86 355.12 2985.12 350.562C2985.38 345.875 2985.7 341.057 2986.09 336.109C2986.61 331.161 2987.27 326.279 2988.05 321.461L2990.39 306.422C2984.14 314.755 2977.11 323.219 2969.3 331.812C2961.61 340.406 2953.28 348.219 2944.3 355.25C2935.44 362.151 2926.07 367.815 2916.17 372.242C2906.41 376.669 2896.45 378.883 2886.29 378.883C2879.91 378.883 2874.11 377.646 2868.91 375.172C2863.7 372.698 2859.21 369.117 2855.43 364.43C2851.78 359.612 2848.92 353.818 2846.84 347.047C2844.75 340.146 2843.71 332.333 2843.71 323.609C2843.71 318.661 2844.04 313.453 2844.69 307.984C2845.47 302.385 2846.64 296.461 2848.2 290.211C2851.98 274.846 2857.77 260.133 2865.59 246.07C2873.4 231.878 2883.23 219.378 2895.08 208.57C2906.93 197.633 2920.73 188.974 2936.48 182.594C2952.24 176.083 2970.01 172.828 2989.8 172.828C2996.84 172.828 3004.06 173.089 3011.48 173.609C3018.91 174 3026.2 174.586 3033.36 175.367C3040.52 176.148 3047.36 177.06 3053.87 178.102C3060.38 179.143 3066.24 180.315 3071.45 181.617L3048.98 271.461C3046.38 281.747 3044.23 291.839 3042.54 301.734C3040.98 311.63 3039.74 321.07 3038.83 330.055C3037.92 338.909 3037.27 347.112 3036.88 354.664C3036.48 362.086 3036.29 368.531 3036.29 374H2984.34ZM3280.62 176.734C3281.41 179.729 3281.8 182.984 3281.8 186.5C3281.8 196.005 3279.52 207.659 3274.96 221.461C3270.53 235.133 3264.48 250.172 3256.8 266.578C3249.11 282.984 3240.13 300.367 3229.84 318.727C3219.69 336.956 3208.88 355.38 3197.42 374C3185.83 392.75 3174.83 408.049 3164.41 419.898C3154 431.747 3143.91 440.992 3134.14 447.633C3124.51 454.273 3115.13 458.766 3106.02 461.109C3096.9 463.583 3087.92 464.82 3079.06 464.82C3074.64 464.82 3069.88 464.43 3064.8 463.648C3059.86 462.997 3054.97 461.956 3050.16 460.523C3045.21 459.221 3040.65 457.529 3036.48 455.445C3032.19 453.362 3028.61 451.018 3025.74 448.414L3051.52 406.227C3052.96 408.049 3054.97 409.872 3057.58 411.695C3060.18 413.648 3063.05 415.471 3066.17 417.164C3069.3 418.857 3072.55 420.224 3075.94 421.266C3079.45 422.307 3082.84 422.828 3086.09 422.828C3089.48 422.828 3093.19 422.177 3097.23 420.875C3101.39 419.703 3105.89 417.424 3110.7 414.039C3115.52 410.654 3120.66 406.031 3126.13 400.172C3131.73 394.312 3137.59 386.76 3143.71 377.516C3143.32 357.073 3141.43 336.956 3138.05 317.164C3134.66 297.242 3130.3 278.557 3124.96 261.109C3119.75 243.531 3113.83 227.516 3107.19 213.062C3100.68 198.609 3094.04 186.5 3087.27 176.734H3142.54C3145.79 181.031 3148.98 186.695 3152.11 193.727C3155.23 200.628 3158.16 208.31 3160.9 216.773C3163.76 225.237 3166.37 234.221 3168.71 243.727C3171.05 253.232 3173.07 262.672 3174.77 272.047C3176.46 281.422 3177.76 290.536 3178.67 299.391C3179.71 308.245 3180.23 316.188 3180.23 323.219C3184.01 316.318 3187.85 308.961 3191.76 301.148C3195.79 293.206 3199.64 285.133 3203.28 276.93C3207.06 268.596 3210.57 260.328 3213.83 252.125C3217.08 243.792 3219.88 235.719 3222.23 227.906C3224.7 220.094 3226.65 212.737 3228.09 205.836C3229.52 198.805 3230.23 192.49 3230.23 186.891C3230.23 185.068 3230.17 183.31 3230.04 181.617C3229.91 179.924 3229.65 178.297 3229.26 176.734H3280.62Z" fill="black"/>
</g>
<g filter="url(#filter1_d_1301_22)">
<path d="M1106.3 687.273C1110.08 687.664 1115.55 688.12 1122.71 688.641C1130 689.031 1137.55 689.227 1145.37 689.227C1159.17 689.227 1171.67 687.664 1182.87 684.539C1194.2 681.284 1204.16 676.271 1212.75 669.5C1221.47 662.729 1228.9 654.07 1235.02 643.523C1241.27 632.977 1246.15 620.346 1249.66 605.633C1251.62 597.43 1253.11 589.747 1254.16 582.586C1255.2 575.294 1255.72 568.393 1255.72 561.883C1255.72 550.555 1254.09 540.464 1250.84 531.609C1247.71 522.755 1243.22 515.333 1237.36 509.344C1231.5 503.354 1224.34 498.797 1215.88 495.672C1207.54 492.547 1198.17 490.984 1187.75 490.984C1182.28 490.984 1176.49 491.115 1170.37 491.375C1164.25 491.505 1159.1 491.701 1154.94 491.961L1106.3 687.273ZM1089.12 532C1091.33 523.146 1093.41 514.552 1095.37 506.219C1097.45 497.885 1099.27 490.138 1100.84 482.977C1102.53 475.815 1103.9 469.435 1104.94 463.836C1105.98 458.107 1106.63 453.419 1106.89 449.773C1111.32 449.513 1117.18 449.253 1124.47 448.992C1131.76 448.732 1139.64 448.536 1148.1 448.406C1156.57 448.146 1165.09 448.016 1173.69 448.016C1182.28 447.885 1190.09 447.82 1197.12 447.82C1205.59 447.82 1214.31 448.602 1223.3 450.164C1232.28 451.596 1241.07 454.07 1249.66 457.586C1258.26 460.971 1266.4 465.398 1274.08 470.867C1281.76 476.336 1288.47 483.107 1294.2 491.18C1299.92 499.122 1304.48 508.432 1307.87 519.109C1311.25 529.786 1312.95 542.026 1312.95 555.828C1312.95 570.802 1310.73 587.339 1306.3 605.438C1300.97 627.573 1293.02 646.714 1282.48 662.859C1272.06 679.005 1259.3 692.352 1244.2 702.898C1229.22 713.445 1212.1 721.258 1192.83 726.336C1173.56 731.414 1152.46 733.953 1129.55 733.953C1126.16 733.953 1122.26 733.888 1117.83 733.758C1113.4 733.758 1108.71 733.693 1103.77 733.562C1098.82 733.562 1093.67 733.497 1088.34 733.367C1083.13 733.237 1078.05 733.107 1073.1 732.977C1061.38 732.716 1049.21 732.391 1036.58 732C1038.27 728.094 1040.03 723.146 1041.85 717.156C1043.8 711.167 1045.76 704.396 1047.71 696.844C1049.79 689.292 1051.94 681.089 1054.16 672.234C1056.5 663.25 1058.91 653.875 1061.38 644.109L1089.12 532ZM1444.59 571.453C1438.47 571.453 1432.54 572.43 1426.81 574.383C1421.08 576.336 1415.74 579.266 1410.8 583.172C1405.85 587.078 1401.42 591.896 1397.52 597.625C1393.61 603.354 1390.48 609.995 1388.14 617.547C1395.69 618.328 1402.79 618.719 1409.43 618.719C1421.28 618.719 1431.37 618.068 1439.7 616.766C1448.04 615.464 1454.81 613.641 1460.02 611.297C1465.35 608.953 1469.2 606.089 1471.54 602.703C1473.88 599.318 1475.05 595.542 1475.05 591.375C1475.05 585.255 1472.39 580.438 1467.05 576.922C1461.71 573.276 1454.22 571.453 1444.59 571.453ZM1500.05 717.547C1492.11 721.062 1484.56 724.057 1477.4 726.531C1470.37 729.005 1463.4 730.958 1456.5 732.391C1449.6 733.953 1442.63 735.06 1435.6 735.711C1428.7 736.492 1421.47 736.883 1413.92 736.883C1402.98 736.883 1392.63 734.995 1382.87 731.219C1373.23 727.443 1364.77 722.104 1357.48 715.203C1350.32 708.172 1344.65 699.708 1340.48 689.812C1336.32 679.786 1334.23 668.589 1334.23 656.219C1334.23 637.339 1337.49 620.216 1344 604.852C1350.51 589.357 1359.3 576.141 1370.37 565.203C1381.43 554.266 1394.33 545.802 1409.04 539.812C1423.75 533.823 1439.25 530.828 1455.52 530.828C1466.46 530.828 1476.23 532.065 1484.82 534.539C1493.41 537.013 1500.71 540.529 1506.7 545.086C1512.68 549.513 1517.24 554.786 1520.37 560.906C1523.49 567.026 1525.05 573.667 1525.05 580.828C1525.05 590.203 1522.71 599.122 1518.02 607.586C1513.47 616.049 1506.63 623.536 1497.52 630.047C1488.4 636.557 1477.07 641.766 1463.53 645.672C1449.99 649.448 1434.3 651.336 1416.46 651.336C1411.9 651.336 1406.7 651.206 1400.84 650.945C1395.11 650.685 1389.38 650.294 1383.65 649.773C1383.78 656.023 1384.56 661.818 1385.99 667.156C1387.55 672.495 1389.96 677.117 1393.22 681.023C1396.47 684.799 1400.64 687.794 1405.72 690.008C1410.8 692.221 1416.92 693.328 1424.08 693.328C1436.97 693.328 1449.86 691.701 1462.75 688.445C1475.77 685.19 1489.25 679.982 1503.18 672.82L1500.05 717.547ZM1662.55 422.43C1662.55 427.898 1662.1 434.474 1661.19 442.156C1660.41 449.839 1659.23 458.042 1657.67 466.766C1656.24 475.359 1654.61 484.148 1652.79 493.133C1650.97 501.987 1649.08 510.32 1647.12 518.133L1619 631.414C1617.96 635.32 1616.79 640.138 1615.48 645.867C1614.31 651.466 1613.14 657.651 1611.97 664.422C1610.8 671.193 1609.82 678.354 1609.04 685.906C1608.26 693.328 1607.87 700.815 1607.87 708.367C1607.87 716.57 1608.45 724.448 1609.62 732H1552.98C1552.85 730.568 1552.72 728.81 1552.59 726.727C1552.46 724.643 1552.33 722.56 1552.2 720.477C1552.2 718.263 1552.14 716.18 1552.01 714.227C1552.01 712.273 1552.01 710.646 1552.01 709.344C1552.01 694.37 1553.24 680.828 1555.72 668.719C1558.32 656.609 1560.8 645.932 1563.14 636.688L1592.63 518.133C1594.46 510.971 1596.28 503.289 1598.1 495.086C1599.92 486.883 1601.55 478.615 1602.98 470.281C1604.42 461.818 1605.59 453.549 1606.5 445.477C1607.41 437.273 1607.87 429.591 1607.87 422.43H1662.55ZM1722.12 470.086C1722.12 464.747 1723.17 459.669 1725.25 454.852C1727.33 450.034 1730.2 445.867 1733.84 442.352C1737.62 438.706 1741.98 435.841 1746.93 433.758C1752.01 431.544 1757.41 430.438 1763.14 430.438C1767.44 430.438 1771.28 431.154 1774.66 432.586C1778.18 434.018 1781.17 435.971 1783.65 438.445C1786.12 440.789 1788.01 443.654 1789.31 447.039C1790.74 450.424 1791.46 454.07 1791.46 457.977C1791.46 463.445 1790.42 468.589 1788.34 473.406C1786.25 478.224 1783.32 482.521 1779.55 486.297C1775.9 489.943 1771.54 492.872 1766.46 495.086C1761.51 497.169 1756.11 498.211 1750.25 498.211C1746.08 498.211 1742.24 497.495 1738.73 496.062C1735.34 494.63 1732.41 492.677 1729.94 490.203C1727.46 487.599 1725.51 484.604 1724.08 481.219C1722.78 477.833 1722.12 474.122 1722.12 470.086ZM1765.29 534.734C1765.03 541.375 1764.31 548.276 1763.14 555.438C1761.97 562.469 1760.47 569.76 1758.65 577.312C1756.96 584.865 1755.07 592.677 1752.98 600.75C1750.9 608.693 1748.88 616.896 1746.93 625.359L1738.14 662.078C1737.62 664.422 1737.03 667.286 1736.38 670.672C1735.73 673.927 1735.15 677.573 1734.62 681.609C1734.1 685.516 1733.65 689.682 1733.26 694.109C1733 698.536 1732.87 702.964 1732.87 707.391C1732.87 711.688 1733.06 715.919 1733.45 720.086C1733.84 724.253 1734.49 728.224 1735.41 732H1677.79C1677.27 729.396 1676.88 726.661 1676.62 723.797C1676.49 720.802 1676.42 717.807 1676.42 714.812C1676.42 709.734 1676.68 704.591 1677.2 699.383C1677.72 694.044 1678.38 688.836 1679.16 683.758C1679.94 678.549 1680.78 673.602 1681.7 668.914C1682.74 664.096 1683.78 659.734 1684.82 655.828L1692.44 625.164C1694.26 617.742 1696.21 610.125 1698.3 602.312C1700.38 594.37 1702.27 586.492 1703.96 578.68C1705.65 570.867 1707.02 563.25 1708.06 555.828C1709.23 548.276 1709.82 541.245 1709.82 534.734H1765.29ZM1991.85 534.734C1991.85 542.677 1990.16 551.661 1986.77 561.688C1983.39 571.583 1978.7 582.195 1972.71 593.523C1966.85 604.721 1959.95 616.31 1952.01 628.289C1944.07 640.268 1935.54 652.247 1926.42 664.227C1917.44 676.206 1908.13 687.99 1898.49 699.578C1888.86 711.036 1879.35 721.844 1869.98 732H1819C1819.52 723.406 1819.91 714.878 1820.17 706.414C1820.43 697.951 1820.56 689.422 1820.56 680.828C1820.56 656.609 1819.26 632.391 1816.66 608.172C1814.18 583.953 1809.82 559.474 1803.57 534.734H1857.67C1859.36 539.943 1860.8 545.932 1861.97 552.703C1863.27 559.344 1864.31 566.44 1865.09 573.992C1865.88 581.544 1866.4 589.422 1866.66 597.625C1867.05 605.698 1867.24 613.771 1867.24 621.844C1867.24 632.391 1866.98 642.547 1866.46 652.312C1866.07 662.078 1865.42 671.062 1864.51 679.266C1874.79 666.375 1884.36 653.615 1893.22 640.984C1902.2 628.354 1909.95 615.984 1916.46 603.875C1923.1 591.766 1928.24 579.917 1931.89 568.328C1935.67 556.74 1937.55 545.542 1937.55 534.734H1991.85ZM2109.82 571.453C2103.7 571.453 2097.78 572.43 2092.05 574.383C2086.32 576.336 2080.98 579.266 2076.03 583.172C2071.08 587.078 2066.66 591.896 2062.75 597.625C2058.84 603.354 2055.72 609.995 2053.38 617.547C2060.93 618.328 2068.02 618.719 2074.66 618.719C2086.51 618.719 2096.6 618.068 2104.94 616.766C2113.27 615.464 2120.04 613.641 2125.25 611.297C2130.59 608.953 2134.43 606.089 2136.77 602.703C2139.12 599.318 2140.29 595.542 2140.29 591.375C2140.29 585.255 2137.62 580.438 2132.28 576.922C2126.94 573.276 2119.46 571.453 2109.82 571.453ZM2165.29 717.547C2157.35 721.062 2149.79 724.057 2142.63 726.531C2135.6 729.005 2128.64 730.958 2121.73 732.391C2114.83 733.953 2107.87 735.06 2100.84 735.711C2093.93 736.492 2086.71 736.883 2079.16 736.883C2068.22 736.883 2057.87 734.995 2048.1 731.219C2038.47 727.443 2030 722.104 2022.71 715.203C2015.55 708.172 2009.89 699.708 2005.72 689.812C2001.55 679.786 1999.47 668.589 1999.47 656.219C1999.47 637.339 2002.72 620.216 2009.23 604.852C2015.74 589.357 2024.53 576.141 2035.6 565.203C2046.67 554.266 2059.56 545.802 2074.27 539.812C2088.99 533.823 2104.48 530.828 2120.76 530.828C2131.7 530.828 2141.46 532.065 2150.05 534.539C2158.65 537.013 2165.94 540.529 2171.93 545.086C2177.92 549.513 2182.48 554.786 2185.6 560.906C2188.73 567.026 2190.29 573.667 2190.29 580.828C2190.29 590.203 2187.95 599.122 2183.26 607.586C2178.7 616.049 2171.86 623.536 2162.75 630.047C2153.64 636.557 2142.31 641.766 2128.77 645.672C2115.22 649.448 2099.53 651.336 2081.7 651.336C2077.14 651.336 2071.93 651.206 2066.07 650.945C2060.34 650.685 2054.61 650.294 2048.88 649.773C2049.01 656.023 2049.79 661.818 2051.23 667.156C2052.79 672.495 2055.2 677.117 2058.45 681.023C2061.71 684.799 2065.88 687.794 2070.95 690.008C2076.03 692.221 2082.15 693.328 2089.31 693.328C2102.2 693.328 2115.09 691.701 2127.98 688.445C2141.01 685.19 2154.48 679.982 2168.41 672.82L2165.29 717.547ZM2204.55 732L2234.04 613.055C2234.95 609.148 2235.8 604.005 2236.58 597.625C2237.49 591.115 2238.21 584.474 2238.73 577.703C2239.38 570.932 2239.83 564.487 2240.09 558.367C2240.48 552.247 2240.68 547.495 2240.68 544.109V534.734H2294.39C2294.39 537.208 2294.2 540.919 2293.8 545.867C2293.54 550.815 2293.15 556.154 2292.63 561.883C2292.11 567.612 2291.53 573.211 2290.88 578.68C2290.35 584.148 2289.83 588.641 2289.31 592.156C2295.43 583.953 2301.88 576.206 2308.65 568.914C2315.55 561.492 2322.52 554.982 2329.55 549.383C2336.58 543.654 2343.61 539.161 2350.64 535.906C2357.67 532.521 2364.51 530.828 2371.15 530.828C2377.01 530.828 2382.09 532 2386.38 534.344C2390.68 536.557 2394.2 539.747 2396.93 543.914C2399.66 547.951 2401.68 552.833 2402.98 558.562C2404.29 564.161 2404.94 570.281 2404.94 576.922C2404.94 581.089 2404.42 585.385 2403.38 589.812C2402.46 594.24 2401.55 598.797 2400.64 603.484L2355.33 610.125C2355.59 608.172 2355.78 606.349 2355.91 604.656C2356.17 602.833 2356.3 601.141 2356.3 599.578C2356.3 593.719 2355.13 589.161 2352.79 585.906C2350.45 582.651 2346.6 581.023 2341.27 581.023C2338.53 581.023 2335.41 582.13 2331.89 584.344C2328.38 586.427 2324.66 589.292 2320.76 592.938C2316.85 596.583 2312.88 600.75 2308.84 605.438C2304.81 610.125 2300.9 615.073 2297.12 620.281C2293.48 625.359 2290.09 630.503 2286.97 635.711C2283.97 640.789 2281.5 645.542 2279.55 649.969L2259.23 732H2204.55ZM2599.47 534.734C2600.25 537.729 2600.64 540.984 2600.64 544.5C2600.64 554.005 2598.36 565.659 2593.8 579.461C2589.38 593.133 2583.32 608.172 2575.64 624.578C2567.96 640.984 2558.97 658.367 2548.69 676.727C2538.53 694.956 2527.72 713.38 2516.27 732C2504.68 750.75 2493.67 766.049 2483.26 777.898C2472.84 789.747 2462.75 798.992 2452.98 805.633C2443.35 812.273 2433.97 816.766 2424.86 819.109C2415.74 821.583 2406.76 822.82 2397.91 822.82C2393.48 822.82 2388.73 822.43 2383.65 821.648C2378.7 820.997 2373.82 819.956 2369 818.523C2364.05 817.221 2359.49 815.529 2355.33 813.445C2351.03 811.362 2347.45 809.018 2344.59 806.414L2370.37 764.227C2371.8 766.049 2373.82 767.872 2376.42 769.695C2379.03 771.648 2381.89 773.471 2385.02 775.164C2388.14 776.857 2391.4 778.224 2394.78 779.266C2398.3 780.307 2401.68 780.828 2404.94 780.828C2408.32 780.828 2412.03 780.177 2416.07 778.875C2420.24 777.703 2424.73 775.424 2429.55 772.039C2434.36 768.654 2439.51 764.031 2444.98 758.172C2450.58 752.312 2456.43 744.76 2462.55 735.516C2462.16 715.073 2460.28 694.956 2456.89 675.164C2453.51 655.242 2449.14 636.557 2443.8 619.109C2438.6 601.531 2432.67 585.516 2426.03 571.062C2419.52 556.609 2412.88 544.5 2406.11 534.734H2461.38C2464.64 539.031 2467.83 544.695 2470.95 551.727C2474.08 558.628 2477.01 566.31 2479.74 574.773C2482.61 583.237 2485.21 592.221 2487.55 601.727C2489.9 611.232 2491.92 620.672 2493.61 630.047C2495.3 639.422 2496.6 648.536 2497.52 657.391C2498.56 666.245 2499.08 674.188 2499.08 681.219C2502.85 674.318 2506.7 666.961 2510.6 659.148C2514.64 651.206 2518.48 643.133 2522.12 634.93C2525.9 626.596 2529.42 618.328 2532.67 610.125C2535.93 601.792 2538.73 593.719 2541.07 585.906C2543.54 578.094 2545.5 570.737 2546.93 563.836C2548.36 556.805 2549.08 550.49 2549.08 544.891C2549.08 543.068 2549.01 541.31 2548.88 539.617C2548.75 537.924 2548.49 536.297 2548.1 534.734H2599.47Z" fill="#E43404"/>
</g>
<g filter="url(#filter2_d_1301_22)">
<path d="M1004.72 479.504C1010.35 374.5 928.331 285.496 823.217 282.555L160.109 264L93 620.705L996.587 631L1004.72 479.504Z" fill="#E78200"/>
<path d="M822.909 293.551L169.184 275.258L106.234 609.855L986.168 619.881L993.733 478.914C999.038 380.087 921.84 296.319 822.909 293.551Z" stroke="black" stroke-width="22"/>
</g>
<g filter="url(#filter3_d_1301_22)">
<path d="M155.848 283.922C171.442 194.368 249.175 129 340.076 129H744L694.865 530H113L155.848 283.922Z" fill="#E43404"/>
<path d="M340.076 140H731.57L685.13 519H126.081L166.685 285.809C181.361 201.523 254.523 140 340.076 140Z" stroke="black" stroke-width="22"/>
</g>
<g filter="url(#filter4_d_1301_22)">
<path d="M914.436 477C966.885 427.495 929.484 339.454 857.441 342.835L770.473 346.916L764 477H914.436V477Z" fill="black"/>
<path d="M780.964 357.436L775.561 466H909.886C950.411 423.047 918.374 350.987 857.956 353.823L780.964 357.436Z" stroke="black" stroke-width="22"/>
</g>
<ellipse cx="260" cy="627" rx="109" ry="97" fill="black"/>
<ellipse cx="788.5" cy="659.5" rx="110.5" ry="96.5" fill="black"/>
<line x1="57" y1="212" x2="302" y2="212" stroke="black" stroke-width="40"/>
<line x1="26" y1="288" x2="271" y2="288" stroke="black" stroke-width="40"/>
<line y1="369" x2="245" y2="369" stroke="black" stroke-width="40"/>
<defs>
<filter id="filter0_d_1301_22" x="1107.58" y="60.7188" width="2195.22" height="419.102" filterUnits="userSpaceOnUse" color-interpolation-filters="sRGB">
<feFlood flood-opacity="0" result="BackgroundImageFix"/>
<feColorMatrix in="SourceAlpha" type="matrix" values="0 0 0 0 0 0 0 0 0 0 0 0 0 0 0 0 0 0 127 0" result="hardAlpha"/>
<feOffset dx="17" dy="11"/>
<feGaussianBlur stdDeviation="2"/>
<feComposite in2="hardAlpha" operator="out"/>
<feColorMatrix type="matrix" values="0 0 0 0 0 0 0 0 0 0 0 0 0 0 0 0 0 0 0.25 0"/>
<feBlend mode="normal" in2="BackgroundImageFix" result="effect1_dropShadow_1301_22"/>
<feBlend mode="normal" in="SourceGraphic" in2="effect1_dropShadow_1301_22" result="shape"/>
</filter>
<filter id="filter1_d_1301_22" x="1036.58" y="422.43" width="1585.06" height="415.391" filterUnits="userSpaceOnUse" color-interpolation-filters="sRGB">
<feFlood flood-opacity="0" result="BackgroundImageFix"/>
<feColorMatrix in="SourceAlpha" type="matrix" values="0 0 0 0 0 0 0 0 0 0 0 0 0 0 0 0 0 0 127 0" result="hardAlpha"/>
<feOffset dx="17" dy="11"/>
<feGaussianBlur stdDeviation="2"/>
<feComposite in2="hardAlpha" operator="out"/>
<feColorMatrix type="matrix" values="0 0 0 0 0 0 0 0 0 0 0 0 0 0 0 0 0 0 0.25 0"/>
<feBlend mode="normal" in2="BackgroundImageFix" result="effect1_dropShadow_1301_22"/>
<feBlend mode="normal" in="SourceGraphic" in2="effect1_dropShadow_1301_22" result="shape"/>
</filter>
<filter id="filter2_d_1301_22" x="93" y="264" width="932.991" height="382" filterUnits="userSpaceOnUse" color-interpolation-filters="sRGB">
<feFlood flood-opacity="0" result="BackgroundImageFix"/>
<feColorMatrix in="SourceAlpha" type="matrix" values="0 0 0 0 0 0 0 0 0 0 0 0 0 0 0 0 0 0 127 0" result="hardAlpha"/>
<feOffset dx="17" dy="11"/>
<feGaussianBlur stdDeviation="2"/>
<feComposite in2="hardAlpha" operator="out"/>
<feColorMatrix type="matrix" values="0 0 0 0 0 0 0 0 0 0 0 0 0 0 0 0 0 0 0.25 0"/>
<feBlend mode="normal" in2="BackgroundImageFix" result="effect1_dropShadow_1301_22"/>
<feBlend mode="normal" in="SourceGraphic" in2="effect1_dropShadow_1301_22" result="shape"/>
</filter>
<filter id="filter3_d_1301_22" x="113" y="129" width="652" height="416" filterUnits="userSpaceOnUse" color-interpolation-filters="sRGB">
<feFlood flood-opacity="0" result="BackgroundImageFix"/>
<feColorMatrix in="SourceAlpha" type="matrix" values="0 0 0 0 0 0 0 0 0 0 0 0 0 0 0 0 0 0 127 0" result="hardAlpha"/>
<feOffset dx="17" dy="11"/>
<feGaussianBlur stdDeviation="2"/>
<feComposite in2="hardAlpha" operator="out"/>
<feColorMatrix type="matrix" values="0 0 0 0 0 0 0 0 0 0 0 0 0 0 0 0 0 0 0.25 0"/>
<feBlend mode="normal" in2="BackgroundImageFix" result="effect1_dropShadow_1301_22"/>
<feBlend mode="normal" in="SourceGraphic" in2="effect1_dropShadow_1301_22" result="shape"/>
</filter>
<filter id="filter4_d_1301_22" x="764" y="342.74" width="195.998" height="149.26" filterUnits="userSpaceOnUse" color-interpolation-filters="sRGB">
<feFlood flood-opacity="0" result="BackgroundImageFix"/>
<feColorMatrix in="SourceAlpha" type="matrix" values="0 0 0 0 0 0 0 0 0 0 0 0 0 0 0 0 0 0 127 0" result="hardAlpha"/>
<feOffset dx="17" dy="11"/>
<feGaussianBlur stdDeviation="2"/>
<feComposite in2="hardAlpha" operator="out"/>
<feColorMatrix type="matrix" values="0 0 0 0 0 0 0 0 0 0 0 0 0 0 0 0 0 0 0.25 0"/>
<feBlend mode="normal" in2="BackgroundImageFix" result="effect1_dropShadow_1301_22"/>
<feBlend mode="normal" in="SourceGraphic" in2="effect1_dropShadow_1301_22" result="shape"/>
</filter>
</defs>
</svg>
